<mxfile host="app.diagrams.net" modified="2024-05-22T13:54:10.612Z" agent="Mozilla/5.0 (Macintosh; Intel Mac OS X 10_15_7) AppleWebKit/537.36 (KHTML, like Gecko) Chrome/118.0.0.0 Safari/537.36" etag="E_6jWoraWRRuJYaNGE7O" version="24.4.6" type="device">
  <diagram name="페이지-1" id="Ja1C__DSjcIJ0C1hhESr">
    <mxGraphModel dx="1373" dy="780" grid="1" gridSize="10" guides="1" tooltips="1" connect="1" arrows="1" fold="1" page="1" pageScale="1" pageWidth="827" pageHeight="1169" math="0" shadow="0">
      <root>
        <mxCell id="0" />
        <mxCell id="1" parent="0" />
        <mxCell id="cNlX0SK-06XZ1Ml3ea98-3" style="edgeStyle=orthogonalEdgeStyle;rounded=0;orthogonalLoop=1;jettySize=auto;html=1;exitX=1;exitY=0.5;exitDx=0;exitDy=0;endArrow=none;endFill=0;" parent="1" source="cNlX0SK-06XZ1Ml3ea98-1" target="cNlX0SK-06XZ1Ml3ea98-2" edge="1">
          <mxGeometry relative="1" as="geometry" />
        </mxCell>
        <mxCell id="csVU99W65jaAwJvi-pMV-2" style="edgeStyle=orthogonalEdgeStyle;rounded=0;orthogonalLoop=1;jettySize=auto;html=1;exitX=0;exitY=0.5;exitDx=0;exitDy=0;endArrow=none;endFill=0;" edge="1" parent="1" source="cNlX0SK-06XZ1Ml3ea98-1" target="csVU99W65jaAwJvi-pMV-1">
          <mxGeometry relative="1" as="geometry" />
        </mxCell>
        <mxCell id="cNlX0SK-06XZ1Ml3ea98-1" value="TrashController" style="rounded=0;whiteSpace=wrap;html=1;" parent="1" vertex="1">
          <mxGeometry x="100" y="530" width="120" height="60" as="geometry" />
        </mxCell>
        <mxCell id="cNlX0SK-06XZ1Ml3ea98-2" value="Pop3Agent" style="rounded=0;whiteSpace=wrap;html=1;" parent="1" vertex="1">
          <mxGeometry x="380" y="530" width="120" height="60" as="geometry" />
        </mxCell>
        <mxCell id="cNlX0SK-06XZ1Ml3ea98-4" value="DeletedEmailsService" style="rounded=0;whiteSpace=wrap;html=1;" parent="1" vertex="1">
          <mxGeometry x="670" y="530" width="120" height="60" as="geometry" />
        </mxCell>
        <mxCell id="cNlX0SK-06XZ1Ml3ea98-5" value="" style="endArrow=classic;html=1;rounded=0;" parent="1" edge="1">
          <mxGeometry width="50" height="50" relative="1" as="geometry">
            <mxPoint x="230" y="550" as="sourcePoint" />
            <mxPoint x="370" y="550" as="targetPoint" />
          </mxGeometry>
        </mxCell>
        <mxCell id="cNlX0SK-06XZ1Ml3ea98-6" value="1: trash()" style="text;html=1;align=center;verticalAlign=middle;whiteSpace=wrap;rounded=0;" parent="1" vertex="1">
          <mxGeometry x="-10" y="520" width="110" height="30" as="geometry" />
        </mxCell>
        <mxCell id="cNlX0SK-06XZ1Ml3ea98-7" value="3: findByUsername()" style="text;html=1;align=center;verticalAlign=middle;whiteSpace=wrap;rounded=0;" parent="1" vertex="1">
          <mxGeometry x="520" y="520" width="140" height="30" as="geometry" />
        </mxCell>
        <mxCell id="cNlX0SK-06XZ1Ml3ea98-9" value="" style="endArrow=none;html=1;rounded=0;entryX=0;entryY=0.5;entryDx=0;entryDy=0;exitX=1;exitY=0.5;exitDx=0;exitDy=0;" parent="1" source="cNlX0SK-06XZ1Ml3ea98-2" target="cNlX0SK-06XZ1Ml3ea98-4" edge="1">
          <mxGeometry width="50" height="50" relative="1" as="geometry">
            <mxPoint x="440" y="660" as="sourcePoint" />
            <mxPoint x="490" y="610" as="targetPoint" />
            <Array as="points">
              <mxPoint x="660" y="560" />
            </Array>
          </mxGeometry>
        </mxCell>
        <mxCell id="cNlX0SK-06XZ1Ml3ea98-10" value="" style="endArrow=classic;html=1;rounded=0;" parent="1" edge="1">
          <mxGeometry width="50" height="50" relative="1" as="geometry">
            <mxPoint x="525" y="550" as="sourcePoint" />
            <mxPoint x="655" y="550" as="targetPoint" />
          </mxGeometry>
        </mxCell>
        <mxCell id="cNlX0SK-06XZ1Ml3ea98-11" value="" style="endArrow=classic;html=1;rounded=0;" parent="1" edge="1">
          <mxGeometry width="50" height="50" relative="1" as="geometry">
            <mxPoint x="650" y="573" as="sourcePoint" />
            <mxPoint x="520" y="573" as="targetPoint" />
            <Array as="points">
              <mxPoint x="600" y="573" />
            </Array>
          </mxGeometry>
        </mxCell>
        <mxCell id="cNlX0SK-06XZ1Ml3ea98-12" value="6: 휴지통 목록 반환" style="text;html=1;align=center;verticalAlign=middle;whiteSpace=wrap;rounded=0;" parent="1" vertex="1">
          <mxGeometry x="460" y="570" width="240" height="30" as="geometry" />
        </mxCell>
        <mxCell id="cNlX0SK-06XZ1Ml3ea98-13" value="" style="endArrow=classic;html=1;rounded=0;" parent="1" edge="1">
          <mxGeometry width="50" height="50" relative="1" as="geometry">
            <mxPoint x="358" y="570" as="sourcePoint" />
            <mxPoint x="228" y="570" as="targetPoint" />
            <Array as="points">
              <mxPoint x="308" y="570" />
            </Array>
          </mxGeometry>
        </mxCell>
        <mxCell id="cNlX0SK-06XZ1Ml3ea98-14" value="7: 휴지통 목록 반환" style="text;html=1;align=center;verticalAlign=middle;whiteSpace=wrap;rounded=0;" parent="1" vertex="1">
          <mxGeometry x="173" y="570" width="240" height="30" as="geometry" />
        </mxCell>
        <mxCell id="cNlX0SK-06XZ1Ml3ea98-16" value="DeletedEmailsRepository" style="rounded=0;whiteSpace=wrap;html=1;" parent="1" vertex="1">
          <mxGeometry x="660" y="680" width="140" height="60" as="geometry" />
        </mxCell>
        <mxCell id="cNlX0SK-06XZ1Ml3ea98-17" value="" style="endArrow=none;html=1;rounded=0;entryX=0.5;entryY=1;entryDx=0;entryDy=0;exitX=0.5;exitY=0;exitDx=0;exitDy=0;" parent="1" source="cNlX0SK-06XZ1Ml3ea98-16" target="cNlX0SK-06XZ1Ml3ea98-4" edge="1">
          <mxGeometry width="50" height="50" relative="1" as="geometry">
            <mxPoint x="600" y="610" as="sourcePoint" />
            <mxPoint x="650" y="560" as="targetPoint" />
          </mxGeometry>
        </mxCell>
        <mxCell id="cNlX0SK-06XZ1Ml3ea98-18" value="&lt;span style=&quot;color: rgb(0, 0, 0); font-family: Helvetica; font-size: 12px; font-style: normal; font-variant-ligatures: normal; font-variant-caps: normal; font-weight: 400; letter-spacing: normal; orphans: 2; text-align: center; text-indent: 0px; text-transform: none; widows: 2; word-spacing: 0px; -webkit-text-stroke-width: 0px; white-space: normal; background-color: rgb(251, 251, 251); text-decoration-thickness: initial; text-decoration-style: initial; text-decoration-color: initial; display: inline !important; float: none;&quot;&gt;4: findByUserUsername()&lt;/span&gt;" style="text;whiteSpace=wrap;html=1;" parent="1" vertex="1">
          <mxGeometry x="740" y="621" width="140" height="40" as="geometry" />
        </mxCell>
        <mxCell id="cNlX0SK-06XZ1Ml3ea98-20" value="" style="endArrow=classic;html=1;rounded=0;exitX=0;exitY=0;exitDx=0;exitDy=0;" parent="1" source="cNlX0SK-06XZ1Ml3ea98-18" edge="1">
          <mxGeometry width="50" height="50" relative="1" as="geometry">
            <mxPoint x="510" y="600" as="sourcePoint" />
            <mxPoint x="740" y="660" as="targetPoint" />
          </mxGeometry>
        </mxCell>
        <mxCell id="cNlX0SK-06XZ1Ml3ea98-21" value="5: 휴지통 목록 반환" style="text;html=1;align=center;verticalAlign=middle;whiteSpace=wrap;rounded=0;" parent="1" vertex="1">
          <mxGeometry x="580" y="621" width="170" height="29" as="geometry" />
        </mxCell>
        <mxCell id="cNlX0SK-06XZ1Ml3ea98-22" value="" style="endArrow=classic;html=1;rounded=0;" parent="1" edge="1">
          <mxGeometry width="50" height="50" relative="1" as="geometry">
            <mxPoint x="720" y="660" as="sourcePoint" />
            <mxPoint x="720" y="600" as="targetPoint" />
            <Array as="points">
              <mxPoint x="720" y="630" />
            </Array>
          </mxGeometry>
        </mxCell>
        <mxCell id="csVU99W65jaAwJvi-pMV-1" value="Actor" style="shape=umlActor;verticalLabelPosition=bottom;verticalAlign=top;html=1;outlineConnect=0;" vertex="1" parent="1">
          <mxGeometry x="-50" y="530" width="30" height="60" as="geometry" />
        </mxCell>
        <mxCell id="csVU99W65jaAwJvi-pMV-3" value="2: getTrashList()" style="text;html=1;align=center;verticalAlign=middle;whiteSpace=wrap;rounded=0;" vertex="1" parent="1">
          <mxGeometry x="240" y="520" width="90" height="30" as="geometry" />
        </mxCell>
        <mxCell id="csVU99W65jaAwJvi-pMV-6" value="" style="endArrow=classic;html=1;rounded=0;" edge="1" parent="1">
          <mxGeometry width="50" height="50" relative="1" as="geometry">
            <mxPoint x="20" y="550" as="sourcePoint" />
            <mxPoint x="80" y="550" as="targetPoint" />
          </mxGeometry>
        </mxCell>
        <mxCell id="csVU99W65jaAwJvi-pMV-7" value="" style="endArrow=classic;html=1;rounded=0;" edge="1" parent="1">
          <mxGeometry width="50" height="50" relative="1" as="geometry">
            <mxPoint x="70" y="570" as="sourcePoint" />
            <mxPoint x="20" y="570" as="targetPoint" />
          </mxGeometry>
        </mxCell>
        <mxCell id="csVU99W65jaAwJvi-pMV-8" value="8: 휴지통 화면 반환" style="text;html=1;align=center;verticalAlign=middle;whiteSpace=wrap;rounded=0;" vertex="1" parent="1">
          <mxGeometry x="-10" y="570" width="110" height="30" as="geometry" />
        </mxCell>
      </root>
    </mxGraphModel>
  </diagram>
</mxfile>
